<svg width="12" height="12" viewBox="0 0 12 12" fill="none" xmlns="http://www.w3.org/2000/svg">
<path d="M3.2585 7.1615L2.5135 10.3875C2.49043 10.4852 2.49736 10.5876 2.53337 10.6812C2.56939 10.7749 2.63282 10.8556 2.71539 10.9127C2.79795 10.9697 2.89581 11.0006 2.99618 11.0012C3.09655 11.0018 3.19476 10.9721 3.278 10.916L6.0005 9.101L8.723 10.916C8.80817 10.9725 8.90861 11.0017 9.01082 10.9994C9.11302 10.9972 9.21209 10.9637 9.2947 10.9035C9.37731 10.8432 9.43949 10.7592 9.47288 10.6625C9.50628 10.5659 9.50929 10.4614 9.4815 10.363L8.567 7.163L10.835 5.122C10.9076 5.0566 10.9595 4.97133 10.9842 4.87676C11.0089 4.78218 11.0053 4.68244 10.9739 4.58987C10.9426 4.4973 10.8847 4.41596 10.8076 4.35591C10.7305 4.29586 10.6374 4.25974 10.54 4.252L7.6895 4.025L6.456 1.2945C6.41667 1.20658 6.35273 1.13192 6.27191 1.07953C6.19108 1.02714 6.09682 0.999268 6.0005 0.999268C5.90418 0.999268 5.80992 1.02714 5.7291 1.07953C5.64827 1.13192 5.58433 1.20658 5.545 1.2945L4.3115 4.025L1.461 4.2515C1.36523 4.25909 1.27367 4.29411 1.19728 4.35237C1.12089 4.41063 1.0629 4.48966 1.03025 4.58002C0.997598 4.67037 0.99167 4.76822 1.01317 4.86185C1.03468 4.95549 1.0827 5.04094 1.1515 5.108L3.2585 7.1615ZM4.685 4.9985C4.77425 4.99147 4.85996 4.96056 4.93315 4.90901C5.00634 4.85746 5.06432 4.78717 5.101 4.7055L6.0005 2.715L6.9 4.7055C6.93668 4.78717 6.99466 4.85746 7.06785 4.90901C7.14104 4.96056 7.22675 4.99147 7.316 4.9985L9.302 5.156L7.6665 6.628C7.5245 6.756 7.468 6.953 7.52 7.137L8.1465 9.3295L6.2785 8.084C6.19651 8.02897 6.1 7.99958 6.00125 7.99958C5.9025 7.99958 5.80599 8.02897 5.724 8.084L3.772 9.3855L4.297 7.1125C4.31625 7.0289 4.31367 6.94176 4.2895 6.85944C4.26533 6.77713 4.22039 6.70242 4.159 6.6425L2.64 5.1615L4.685 4.9985Z" fill="#F3CD03"/>
</svg>
