<svg width="12" height="12" viewBox="0 0 12 12" fill="none" xmlns="http://www.w3.org/2000/svg">
<path d="M10.9736 4.58945C10.9422 4.49688 10.8844 4.41554 10.8072 4.35548C10.7301 4.29541 10.6371 4.25925 10.5396 4.25145L7.68914 4.02495L6.45564 1.29445C6.41635 1.2065 6.35246 1.13181 6.27166 1.07937C6.19086 1.02694 6.09662 0.999015 6.0003 0.998962C5.90398 0.99891 5.8097 1.02673 5.72885 1.07908C5.64799 1.13142 5.58401 1.20605 5.54463 1.29395L4.31113 4.02495L1.46064 4.25145C1.36486 4.25903 1.2733 4.29405 1.19691 4.35231C1.12052 4.41057 1.06253 4.48961 1.02988 4.57996C0.997232 4.67032 0.991304 4.76816 1.01281 4.8618C1.03431 4.95543 1.08234 5.04089 1.15114 5.10795L3.25763 7.16145L2.51264 10.3874C2.49001 10.4851 2.49726 10.5873 2.53344 10.6808C2.56963 10.7742 2.63307 10.8547 2.71554 10.9117C2.79801 10.9686 2.89569 10.9995 2.99593 11.0003C3.09616 11.001 3.19431 10.9717 3.27763 10.9159L6.00013 9.10095L8.72263 10.9159C8.8078 10.9725 8.90824 11.0016 9.01045 10.9994C9.11266 10.9971 9.21172 10.9636 9.29433 10.9034C9.37694 10.8432 9.43912 10.7591 9.47252 10.6625C9.50591 10.5659 9.50892 10.4613 9.48113 10.3629L8.56663 7.16295L10.8346 5.12195C10.9831 4.98795 11.0376 4.77895 10.9736 4.58945Z" fill="#F3CD03"/>
</svg>
