<svg width="12" height="12" viewBox="0 0 12 12" fill="none" xmlns="http://www.w3.org/2000/svg">
<path d="M10.9738 4.58945C10.9423 4.49688 10.8845 4.41554 10.8074 4.35548C10.7302 4.29541 10.6372 4.25925 10.5398 4.25145L7.68926 4.02495L6.45576 1.29445C6.41647 1.2065 6.35258 1.13181 6.27178 1.07937C6.19098 1.02694 6.09674 0.999015 6.00042 0.998962C5.9041 0.99891 5.80982 1.02673 5.72897 1.07908C5.64811 1.13142 5.58414 1.20605 5.54476 1.29395L4.31126 4.02495L1.46076 4.25145C1.36498 4.25903 1.27343 4.29405 1.19703 4.35231C1.12064 4.41057 1.06265 4.48961 1.03 4.57996C0.997354 4.67032 0.991426 4.76816 1.01293 4.8618C1.03443 4.95543 1.08246 5.04089 1.15126 5.10795L3.25776 7.16145L2.51276 10.3874C2.49014 10.4851 2.49739 10.5873 2.53357 10.6808C2.56975 10.7742 2.63319 10.8547 2.71566 10.9117C2.79813 10.9686 2.89582 10.9995 2.99605 11.0003C3.09628 11.001 3.19443 10.9717 3.27776 10.9159L6.00026 9.10095L8.72276 10.9159C8.80792 10.9725 8.90837 11.0016 9.01057 10.9994C9.11278 10.9971 9.21185 10.9636 9.29445 10.9034C9.37706 10.8432 9.43924 10.7591 9.47264 10.6625C9.50604 10.5659 9.50904 10.4613 9.48126 10.3629L8.56676 7.16295L10.8348 5.12195C10.9833 4.98795 11.0378 4.77895 10.9738 4.58945Z" fill="#F3CD03"/>
</svg>
