<svg width="23" height="23" viewBox="0 0 23 23" fill="none" xmlns="http://www.w3.org/2000/svg">
<path d="M20.6569 8.41927C20.5993 8.24946 20.4932 8.10025 20.3517 7.99006C20.2102 7.87987 20.0395 7.81353 19.8608 7.79922L14.6316 7.38371L12.3688 2.3747C12.2967 2.21337 12.1795 2.07634 12.0313 1.98016C11.8831 1.88397 11.7102 1.83274 11.5335 1.83264C11.3568 1.83254 11.1839 1.88359 11.0355 1.97961C10.8872 2.07563 10.7698 2.21253 10.6976 2.37378L8.43479 7.38371L3.20564 7.79922C3.02995 7.81314 2.86198 7.87738 2.72185 7.98425C2.58171 8.09113 2.47533 8.23612 2.41543 8.40187C2.35554 8.56762 2.34466 8.74712 2.38411 8.91889C2.42356 9.09066 2.51166 9.24743 2.63787 9.37044L6.50218 13.1375L5.1355 19.0555C5.094 19.2347 5.1073 19.4221 5.17367 19.5936C5.24005 19.7651 5.35643 19.9127 5.50771 20.0172C5.659 20.1217 5.83821 20.1783 6.02208 20.1797C6.20595 20.1811 6.386 20.1272 6.53887 20.025L11.5332 16.6955L16.5275 20.025C16.6838 20.1288 16.868 20.1822 17.0555 20.1781C17.243 20.1739 17.4248 20.1125 17.5763 20.002C17.7278 19.8916 17.8419 19.7373 17.9032 19.5601C17.9644 19.3828 17.97 19.1911 17.919 19.0106L16.2414 13.1403L20.4019 9.39612C20.6744 9.15031 20.7743 8.7669 20.6569 8.41927Z" fill="#F3CD03"/>
</svg>
