<svg width="12" height="12" viewBox="0 0 12 12" fill="none" xmlns="http://www.w3.org/2000/svg">
<path d="M10.9735 4.58945C10.9421 4.49688 10.8842 4.41554 10.8071 4.35548C10.73 4.29541 10.637 4.25925 10.5395 4.25145L7.68901 4.02495L6.45551 1.29445C6.41623 1.2065 6.35233 1.13181 6.27154 1.07937C6.19074 1.02694 6.09649 0.999015 6.00017 0.998962C5.90386 0.99891 5.80958 1.02673 5.72873 1.07908C5.64787 1.13142 5.58389 1.20605 5.54451 1.29395L4.31101 4.02495L1.46051 4.25145C1.36474 4.25903 1.27318 4.29405 1.19679 4.35231C1.1204 4.41057 1.06241 4.48961 1.02976 4.57996C0.99711 4.67032 0.991182 4.76816 1.01269 4.8618C1.03419 4.95543 1.08221 5.04089 1.15101 5.10795L3.25751 7.16145L2.51251 10.3874C2.48989 10.4851 2.49714 10.5873 2.53332 10.6808C2.5695 10.7742 2.63295 10.8547 2.71541 10.9117C2.79788 10.9686 2.89557 10.9995 2.9958 11.0003C3.09604 11.001 3.19419 10.9717 3.27751 10.9159L6.00001 9.10095L8.72251 10.9159C8.80768 10.9725 8.90812 11.0016 9.01033 10.9994C9.11253 10.9971 9.2116 10.9636 9.29421 10.9034C9.37682 10.8432 9.439 10.7591 9.4724 10.6625C9.50579 10.5659 9.5088 10.4613 9.48101 10.3629L8.56651 7.16295L10.8345 5.12195C10.983 4.98795 11.0375 4.77895 10.9735 4.58945Z" fill="#F3CD03"/>
</svg>
