<svg width="12" height="12" viewBox="0 0 12 12" fill="none" xmlns="http://www.w3.org/2000/svg">
<path d="M10.974 4.58945C10.9426 4.49688 10.8847 4.41554 10.8076 4.35548C10.7305 4.29541 10.6374 4.25925 10.54 4.25145L7.6895 4.02495L6.456 1.29445C6.41672 1.2065 6.35282 1.13181 6.27202 1.07937C6.19123 1.02694 6.09698 0.999015 6.00066 0.998962C5.90434 0.99891 5.81007 1.02673 5.72921 1.07908C5.64836 1.13142 5.58438 1.20605 5.545 1.29395L4.3115 4.02495L1.461 4.25145C1.36523 4.25903 1.27367 4.29405 1.19728 4.35231C1.12089 4.41057 1.0629 4.48961 1.03025 4.57996C0.997598 4.67032 0.99167 4.76816 1.01317 4.8618C1.03468 4.95543 1.0827 5.04089 1.1515 5.10795L3.258 7.16145L2.513 10.3874C2.49038 10.4851 2.49763 10.5873 2.53381 10.6808C2.56999 10.7742 2.63343 10.8547 2.7159 10.9117C2.79837 10.9686 2.89606 10.9995 2.99629 11.0003C3.09653 11.001 3.19467 10.9717 3.278 10.9159L6.0005 9.10095L8.723 10.9159C8.80817 10.9725 8.90861 11.0016 9.01082 10.9994C9.11302 10.9971 9.21209 10.9636 9.2947 10.9034C9.37731 10.8432 9.43949 10.7591 9.47288 10.6625C9.50628 10.5659 9.50929 10.4613 9.4815 10.3629L8.567 7.16295L10.835 5.12195C10.9835 4.98795 11.038 4.77895 10.974 4.58945Z" fill="#F3CD03"/>
</svg>
