<svg width="23" height="23" viewBox="0 0 23 23" fill="none" xmlns="http://www.w3.org/2000/svg">
<path d="M20.6706 8.41927C20.613 8.24946 20.5068 8.10025 20.3653 7.99006C20.2239 7.87987 20.0532 7.81353 19.8744 7.79922L14.6453 7.38371L12.3825 2.3747C12.3104 2.21337 12.1932 2.07634 12.045 1.98016C11.8968 1.88397 11.7239 1.83274 11.5472 1.83264C11.3705 1.83254 11.1975 1.88359 11.0492 1.97961C10.9009 2.07563 10.7835 2.21253 10.7113 2.37378L8.44846 7.38371L3.21931 7.79922C3.04362 7.81314 2.87566 7.87738 2.73552 7.98425C2.59538 8.09113 2.489 8.23612 2.4291 8.40187C2.36921 8.56762 2.35834 8.74712 2.39778 8.91889C2.43723 9.09066 2.52533 9.24743 2.65154 9.37044L6.51585 13.1375L5.14917 19.0555C5.10767 19.2347 5.12097 19.4221 5.18734 19.5936C5.25372 19.7651 5.3701 19.9127 5.52138 20.0172C5.67267 20.1217 5.85188 20.1783 6.03575 20.1797C6.21963 20.1811 6.39968 20.1272 6.55254 20.025L11.5469 16.6955L16.5412 20.025C16.6975 20.1288 16.8817 20.1822 17.0692 20.1781C17.2567 20.1739 17.4384 20.1125 17.59 20.002C17.7415 19.8916 17.8556 19.7373 17.9169 19.5601C17.9781 19.3828 17.9836 19.1911 17.9327 19.0106L16.255 13.1403L20.4156 9.39612C20.688 9.15031 20.788 8.7669 20.6706 8.41927Z" fill="#F3CD03"/>
</svg>
