<svg width="12" height="12" viewBox="0 0 12 12" fill="none" xmlns="http://www.w3.org/2000/svg">
<path d="M10.9734 4.58945C10.942 4.49688 10.8841 4.41554 10.807 4.35548C10.7299 4.29541 10.6368 4.25925 10.5394 4.25145L7.68889 4.02495L6.45539 1.29445C6.41611 1.2065 6.35221 1.13181 6.27141 1.07937C6.19062 1.02694 6.09637 0.999015 6.00005 0.998962C5.90373 0.99891 5.80946 1.02673 5.7286 1.07908C5.64775 1.13142 5.58377 1.20605 5.54439 1.29395L4.31089 4.02495L1.46039 4.25145C1.36462 4.25903 1.27306 4.29405 1.19667 4.35231C1.12028 4.41057 1.06229 4.48961 1.02964 4.57996C0.996988 4.67032 0.99106 4.76816 1.01256 4.8618C1.03407 4.95543 1.08209 5.04089 1.15089 5.10795L3.25739 7.16145L2.51239 10.3874C2.48977 10.4851 2.49702 10.5873 2.5332 10.6808C2.56938 10.7742 2.63282 10.8547 2.71529 10.9117C2.79776 10.9686 2.89545 10.9995 2.99568 11.0003C3.09592 11.001 3.19406 10.9717 3.27739 10.9159L5.99989 9.10095L8.72239 10.9159C8.80756 10.9725 8.908 11.0016 9.01021 10.9994C9.11241 10.9971 9.21148 10.9636 9.29409 10.9034C9.37669 10.8432 9.43888 10.7591 9.47227 10.6625C9.50567 10.5659 9.50868 10.4613 9.48089 10.3629L8.56639 7.16295L10.8344 5.12195C10.9829 4.98795 11.0374 4.77895 10.9734 4.58945Z" fill="#F3CD03"/>
</svg>
