<svg width="1011" height="26" viewBox="0 0 1011 26" fill="none" xmlns="http://www.w3.org/2000/svg">
<path d="M922.997 20.23C922.997 20.957 922.592 22.357 921.683 23.126C921.501 23.266 921.318 23.187 921.398 22.983C921.663 22.335 922.27 20.836 921.985 20.491C921.785 20.229 920.955 20.248 920.247 20.309C919.923 20.35 919.64 20.369 919.419 20.414C919.216 20.431 919.174 20.251 919.378 20.111C919.64 19.926 919.923 19.786 920.248 19.683C921.398 19.339 922.728 19.546 922.918 19.766C922.954 19.808 922.998 19.926 922.998 20.229L922.997 20.23ZM921.076 21.524C920.812 21.7257 920.534 21.9094 920.246 22.074C918.124 23.349 915.376 24.017 912.988 24.017C909.145 24.017 905.708 22.6 903.1 20.229C902.877 20.047 903.062 19.783 903.323 19.926C906.133 21.566 909.611 22.558 913.212 22.558C915.619 22.5512 918.004 22.0982 920.247 21.222C920.409 21.161 920.591 21.078 920.75 21.02C921.117 20.855 921.44 21.263 921.076 21.524ZM914.906 10.494C914.906 9.453 914.947 8.84 914.602 8.314C914.296 7.881 913.769 7.621 913.034 7.662C912.236 7.706 911.379 8.229 911.16 9.188C911.118 9.408 910.989 9.624 910.724 9.671L908.288 9.361C908.114 9.321 907.85 9.188 907.936 8.84C908.459 6.088 910.811 5.129 913.034 5H913.557C914.777 5 916.344 5.349 917.347 6.264C918.564 7.4 918.435 8.926 918.435 10.584V14.511C918.435 15.689 918.912 16.211 919.393 16.825C919.523 17.044 919.567 17.302 919.348 17.48C918.718 18.0419 918.079 18.5933 917.431 19.134C917.257 19.267 916.943 19.281 916.821 19.179C916.051 18.534 915.863 18.176 915.386 17.521C914.556 18.392 913.86 18.873 913.031 19.134C912.448 19.282 911.848 19.3546 911.247 19.35C909.157 19.35 907.501 18.047 907.501 15.47C907.501 13.421 908.591 12.028 910.201 11.369C911.811 10.709 914.151 10.499 914.905 10.495L914.906 10.494ZM914.428 15.686C914.948 14.814 914.905 14.1 914.905 12.501C914.254 12.501 913.599 12.546 913.034 12.679C911.989 12.982 911.16 13.64 911.16 15.034C911.16 16.124 911.727 16.866 912.685 16.866C912.817 16.866 912.933 16.85 913.034 16.821C913.704 16.635 914.122 16.299 914.428 15.686Z" fill="black"/>
<path d="M1008.04 20.0412H1005.08V15.4004C1005.08 14.2937 1005.06 12.8691 1003.54 12.8691C1001.99 12.8691 1001.76 14.0749 1001.76 15.3198V20.0409H998.793V10.4975H1001.64V11.8017H1001.68C1001.96 11.3149 1002.37 10.9144 1002.87 10.643C1003.36 10.3715 1003.92 10.2391 1004.48 10.26C1007.49 10.26 1008.04 12.2357 1008.04 14.8058L1008.04 20.0412ZM995.45 9.19302C994.5 9.19317 993.73 8.42333 993.73 7.47357C993.73 6.5238 994.499 5.75372 995.449 5.75357C996.399 5.75333 997.169 6.52317 997.169 7.47294C997.169 7.92904 996.988 8.36649 996.666 8.68906C996.343 9.01164 995.906 9.19291 995.45 9.19302ZM996.931 20.0413H993.965V10.4975H996.931V20.0412L996.931 20.0413ZM1009.52 3.00146H992.476C991.67 2.99239 991.01 3.63763 991 4.4431V21.5566C991.01 22.3625 991.67 23.0083 992.476 22.9999H1009.52C1010.33 23.0099 1010.99 22.364 1011 21.5566V4.44177C1010.99 3.63474 1010.33 2.98958 1009.52 3.00013" fill="#1070CF"/>
<path d="M16 13V10H13V8H16V5H18V8H21V10H18V13H16ZM19.95 23C17.8 23 15.7043 22.5207 13.663 21.562C11.621 20.604 9.81267 19.3373 8.238 17.762C6.66267 16.1873 5.396 14.379 4.438 12.337C3.47933 10.2957 3 8.2 3 6.05C3 5.75 3.1 5.5 3.3 5.3C3.5 5.1 3.75 5 4.05 5H8.1C8.33333 5 8.54167 5.075 8.725 5.225C8.90833 5.375 9.01667 5.56667 9.05 5.8L9.7 9.3C9.73333 9.53333 9.72933 9.74567 9.688 9.937C9.646 10.129 9.55 10.3 9.4 10.45L7 12.9C7.7 14.1 8.575 15.225 9.625 16.275C10.675 17.325 11.8333 18.2333 13.1 19L15.45 16.65C15.6 16.5 15.796 16.3873 16.038 16.312C16.2793 16.2373 16.5167 16.2167 16.75 16.25L20.2 16.95C20.4333 17 20.625 17.1123 20.775 17.287C20.925 17.4623 21 17.6667 21 17.9V21.95C21 22.25 20.9 22.5 20.7 22.7C20.5 22.9 20.25 23 19.95 23Z" fill="black"/>
<path d="M710.959 3.4839C708.764 1.23622 705.84 0 702.732 0C696.319 0 691.1 5.33021 691.1 11.8806C691.1 13.9731 691.634 16.0174 692.651 17.8209L691 23.9752L697.168 22.3216C698.865 23.2688 700.778 23.7665 702.727 23.7665H702.732C709.141 23.7665 714.475 18.4363 714.475 11.8859C714.475 8.71243 713.155 5.73158 710.959 3.4839ZM702.732 21.765C700.993 21.765 699.29 21.2887 697.807 20.3897L697.456 20.1756L693.798 21.1549L694.773 17.5105L694.542 17.1359C693.573 15.5625 693.065 13.7483 693.065 11.8806C693.065 6.43799 697.403 2.00686 702.738 2.00686C705.321 2.00686 707.747 3.03437 709.571 4.90208C711.394 6.76979 712.516 9.24759 712.51 11.8859C712.51 17.3339 708.062 21.765 702.732 21.765ZM708.035 14.3691C707.747 14.2192 706.317 13.5021 706.049 13.4058C705.782 13.3041 705.588 13.256 705.394 13.5556C705.2 13.8553 704.645 14.5189 704.472 14.7223C704.304 14.9203 704.131 14.9471 703.843 14.7972C702.135 13.9249 701.014 13.2399 699.887 11.2652C699.588 10.7407 700.186 10.7782 700.741 9.64361C700.836 9.4456 700.788 9.27435 700.715 9.12451C700.642 8.97466 700.06 7.51367 699.819 6.91964C699.583 6.34166 699.342 6.42194 699.164 6.41124C698.996 6.40053 698.802 6.40053 698.609 6.40053C698.415 6.40053 698.1 6.47545 697.833 6.76979C697.566 7.06948 696.816 7.7866 696.816 9.24759C696.816 10.7086 697.859 12.1214 698.001 12.3194C698.147 12.5174 700.05 15.5143 702.968 16.8041C704.813 17.6175 705.536 17.6871 706.458 17.5479C707.019 17.4623 708.177 16.8308 708.418 16.1351C708.659 15.4394 708.659 14.8454 708.586 14.7223C708.517 14.5885 708.324 14.5136 708.035 14.3691Z" fill="#11002E"/>
<path d="M962.903 3.04761H948.028C947.49 3.04761 946.975 3.28332 946.594 3.7029C946.214 4.12248 946 4.69155 946 5.28493V21.6919C946 22.2853 946.214 22.8544 946.594 23.274C946.975 23.6935 947.49 23.9293 948.028 23.9293H953.828V16.83H951.166V13.4884H953.828V10.9416C953.828 8.04475 955.392 6.4446 957.787 6.4446C958.934 6.4446 960.133 6.6702 960.133 6.6702V9.51346H958.811C957.509 9.51346 957.103 10.4047 957.103 11.3187V13.4884H960.01L959.545 16.83H957.103V23.9293H962.903C963.441 23.9293 963.957 23.6935 964.338 23.274C964.718 22.8544 964.932 22.2853 964.932 21.6919V5.28493C964.932 4.69155 964.718 4.12248 964.338 3.7029C963.957 3.28332 963.441 3.04761 962.903 3.04761Z" fill="#2235E0"/>
</svg>
