<svg width="33" height="33" viewBox="0 0 33 33" fill="none" xmlns="http://www.w3.org/2000/svg">
<rect width="33" height="32" transform="translate(0 0.5)" fill="white"/>
<path d="M21.6485 9.04909L21.693 9.5H21.6772L21.6114 8.94146C21.477 7.80141 20.9454 6.74574 20.1126 5.94587C20.9883 6.77224 21.5324 7.872 21.6485 9.04909ZM12.8874 5.94587C12.0546 6.74574 11.523 7.8014 11.3886 8.94146L11.3228 9.5H11.307L11.3515 9.04909C11.4676 7.872 12.0117 6.77223 12.8874 5.94587ZM21.6406 9.5H21.6719V10V13.4954C21.6694 13.4973 21.6641 13.5 21.6562 13.5C21.6484 13.5 21.6431 13.4973 21.6406 13.4954V10V9.5ZM11.3281 9.5H11.3594V10V13.4954C11.3569 13.4973 11.3516 13.5 11.3438 13.5C11.3359 13.5 11.3306 13.4973 11.3281 13.4954V10V9.5ZM4.41052 9.79829C4.60575 9.60897 4.87372 9.5 5.15625 9.5C4.89177 9.5 4.63514 9.60173 4.44358 9.78749C4.25149 9.97376 4.14062 10.2297 4.14062 10.5V26.5C4.14062 26.7703 4.25149 27.0262 4.44357 27.2125C4.63514 27.3983 4.89177 27.5 5.15625 27.5C4.87372 27.5 4.60575 27.391 4.41052 27.2017C4.21581 27.0129 4.10938 26.7602 4.10938 26.5V10.5C4.10938 10.2398 4.21581 9.98709 4.41052 9.79829ZM28.5895 27.2017C28.3943 27.391 28.1263 27.5 27.8438 27.5C28.1082 27.5 28.3649 27.3983 28.5564 27.2125C28.7485 27.0262 28.8594 26.7703 28.8594 26.5V10.5C28.8594 10.2297 28.7485 9.97376 28.5564 9.78749C28.3649 9.60173 28.1082 9.5 27.8438 9.5C28.1263 9.5 28.3943 9.60897 28.5895 9.79828C28.7842 9.98709 28.8906 10.2398 28.8906 10.5V26.5C28.8906 26.7602 28.7842 27.0129 28.5895 27.2017Z" fill="#00B0C8" stroke="#00B0C8"/>
</svg>
