<svg width="229" height="48" viewBox="0 0 229 48" fill="none" xmlns="http://www.w3.org/2000/svg">
<path d="M21.384 37.4205C19.872 37.8912 18.504 38.1265 17.28 38.1265C15.444 38.1265 14.004 37.5045 12.96 36.2605C11.952 34.9829 11.124 33.1842 10.476 30.8643C10.332 30.36 9.828 28.5108 8.964 25.3168C7.272 19.0633 5.904 14.5412 4.86 11.7506C3.816 8.92645 2.286 6.7915 0.27 5.34578C0.702 4.33714 1.404 3.53023 2.376 2.92505C3.384 2.31987 4.554 2.01728 5.886 2.01728C7.218 2.01728 8.316 2.50478 9.18 3.4798C10.044 4.4212 10.728 5.58113 11.232 6.9596C11.772 8.33807 12.24 9.66611 12.636 10.9437C13.032 12.2213 13.446 13.8015 13.878 15.6843C14.346 17.5671 14.706 19.0969 14.958 20.2736C15.246 21.4167 15.678 23.4004 16.254 26.2246C16.866 29.0151 17.316 31.0492 17.604 32.3268C23.652 17.6007 26.676 7.76651 26.676 2.82419C26.676 2.38711 26.658 2.06771 26.622 1.86598C27.162 1.76512 27.72 1.71469 28.296 1.71469C29.736 1.71469 30.906 2.0509 31.806 2.72332C32.742 3.36213 33.21 4.28671 33.21 5.49708C33.21 7.17814 31.428 12.1541 27.864 20.4249C24.336 28.6621 22.176 34.3273 21.384 37.4205Z" fill="#200055"/>
<path d="M84.3126 18.1555C86.1846 21.7193 88.4706 25.031 91.1706 28.0906C93.9066 31.1501 96.4626 33.0161 98.8386 33.6885C98.8386 35.1006 98.4426 36.1933 97.6506 36.9666C96.8586 37.7399 95.7246 38.1265 94.2486 38.1265C92.3046 38.1265 90.0546 36.8657 87.4986 34.3441C84.9786 31.7889 82.7646 28.9311 80.8566 25.7707C78.9486 22.6103 77.6166 19.8365 76.8606 17.4494C80.4246 16.0037 83.4666 13.7679 85.9866 10.742C88.5066 7.68246 89.7666 4.67336 89.7666 1.71469C91.3146 1.71469 92.6466 1.96685 93.7626 2.47116C94.9146 2.97548 95.4906 3.78239 95.4906 4.89189C95.4906 6.6402 94.3746 8.75834 92.1426 11.2463C89.9106 13.7343 87.3006 16.0373 84.3126 18.1555ZM76.6986 37.2187C75.5466 37.6222 74.3226 37.8239 73.0266 37.8239C71.7306 37.8239 70.5966 37.4373 69.6246 36.664C68.6886 35.8907 68.2206 34.8316 68.2206 33.4868C68.2206 32.1419 68.4006 29.5699 68.7606 25.7707C69.1206 21.9379 69.3006 18.8783 69.3006 16.5921C69.3006 10.7084 68.9226 6.05183 68.1666 2.62246C69.3186 2.219 70.5426 2.01728 71.8386 2.01728C73.1346 2.01728 74.2506 2.40392 75.1866 3.17721C76.1586 3.9505 76.6446 5.00957 76.6446 6.35442C76.6446 7.69927 76.4646 10.2881 76.1046 14.1209C75.7446 17.9201 75.5646 20.9629 75.5646 23.2491C75.5646 29.1328 75.9426 33.7894 76.6986 37.2187Z" fill="#200055"/>
<path d="M118.314 37.2187C117.198 37.6222 116.01 37.8239 114.75 37.8239C113.49 37.8239 112.464 37.5549 111.672 37.017C110.916 36.4454 110.538 35.6722 110.538 34.6971C110.538 33.6885 110.7 31.873 111.024 29.2505C111.348 26.628 111.51 24.0896 111.51 21.6353C111.51 19.1473 111.096 16.2391 110.268 12.9106C111.42 12.5071 112.554 12.3054 113.67 12.3054C114.786 12.3054 115.74 12.6584 116.532 13.3645C117.36 14.0705 117.774 15.0119 117.774 16.1886C117.774 16.7938 117.666 17.7016 117.45 18.912C117.234 20.0887 117.108 20.9797 117.072 21.5848C118.476 18.5926 120.132 16.2559 122.04 14.5748C123.984 12.8601 125.91 12.0028 127.818 12.0028C129.15 12.0028 130.212 12.4399 131.004 13.314C131.796 14.1882 132.192 15.2977 132.192 16.6425C132.192 17.9538 131.832 19.0296 131.112 19.8702C130.392 20.6771 129.492 21.0805 128.412 21.0805C127.368 21.0805 126.522 20.9797 125.874 20.7779C125.982 20.3745 126.036 20.0046 126.036 19.6684C126.036 18.29 125.514 17.6007 124.47 17.6007C122.886 17.6007 121.392 19.0969 119.988 22.0892C118.62 25.0478 117.702 27.8216 117.234 30.4104C117.414 32.932 117.774 35.2015 118.314 37.2187Z" fill="#200055"/>
<path d="M167.833 14.0705C166.861 17.9369 166.375 21.8202 166.375 25.7203C166.375 29.5867 166.843 33.4195 167.779 37.2187C166.483 37.6222 165.151 37.8239 163.783 37.8239C162.415 37.8239 161.461 37.4541 160.921 36.7144C160.381 35.9411 160.111 34.8484 160.111 33.4363C160.111 31.9906 160.345 30.0238 160.813 27.5358C158.257 32.6462 155.791 35.8739 153.415 37.2187C152.335 37.8239 151.219 38.1265 150.067 38.1265C147.331 38.1265 145.207 37.1851 143.695 35.3023C142.183 33.3859 141.427 31.0156 141.427 28.1914C141.427 23.8879 142.705 20.1223 145.261 16.8947C147.817 13.6334 151.129 12.0028 155.197 12.0028C159.301 12.0028 163.513 12.692 167.833 14.0705ZM160.759 17.0964C158.851 16.5585 157.231 16.2895 155.899 16.2895C153.199 16.2895 151.183 16.8443 149.851 17.9538C148.627 20.7779 148.015 23.6526 148.015 26.5776C148.015 28.1242 148.267 29.6876 148.771 31.2678C149.311 32.848 150.121 33.6381 151.201 33.6381C152.461 33.6381 154.081 31.9066 156.061 28.4436C158.041 24.9806 159.607 21.1982 160.759 17.0964Z" fill="#200055"/>
<path d="M183.489 29.6035C183.489 28.9983 183.327 25.0646 183.003 17.8025C181.239 17.9033 179.835 18.1891 178.791 18.6598C178.359 17.9201 178.143 17.1468 178.143 16.3399C178.143 15.533 178.449 14.8774 179.061 14.3731C179.673 13.8351 180.393 13.5662 181.221 13.5662C182.049 13.5662 182.643 13.583 183.003 13.6166C183.183 9.81741 184.569 6.60658 187.161 3.98412C189.753 1.32804 193.011 0 196.935 0C199.131 0 200.985 0.437077 202.497 1.31123C204.009 2.18538 204.765 3.4798 204.765 5.19449C204.765 6.40485 204.279 7.4303 203.307 8.27083C202.335 9.11136 201.183 9.53163 199.851 9.53163C199.563 9.53163 199.203 9.498 198.771 9.43076C198.879 8.99369 198.933 8.60704 198.933 8.27083C198.933 7.09409 198.663 6.15269 198.123 5.44665C197.583 4.70698 196.629 4.33714 195.261 4.33714C193.893 4.33714 192.633 4.70698 191.481 5.44665C190.761 6.35442 190.185 7.61522 189.753 9.22904C189.321 10.8429 189.105 12.4231 189.105 13.9696H190.347C192.723 13.9696 195.549 13.6166 198.825 12.9106C199.257 13.583 199.473 14.3899 199.473 15.3313C199.473 16.2391 199.059 16.9955 198.231 17.6007C197.403 18.2059 196.359 18.5085 195.099 18.5085C195.063 18.5085 193.029 18.2732 188.997 17.8025L189.537 44.027C189.537 46.2124 188.151 47.3051 185.379 47.3051C184.443 47.3051 183.219 47.1034 181.707 46.6999C182.895 42.2955 183.489 36.5967 183.489 29.6035Z" fill="#200055"/>
<path d="M211.823 4.89189C212.975 4.35395 214.145 4.08498 215.333 4.08498C216.521 4.08498 217.475 4.43801 218.195 5.14405C218.951 5.8501 219.329 6.89236 219.329 8.27083C219.329 9.6493 219.239 11.2127 219.059 12.961C221.759 12.961 224.333 12.608 226.781 11.9019C227.213 12.5744 227.429 13.3645 227.429 14.2722C227.429 15.1464 226.997 15.8692 226.133 16.4408C225.305 16.9787 224.459 17.2477 223.595 17.2477C222.731 17.2477 221.759 17.1468 220.679 16.9451C219.599 16.7434 218.897 16.6257 218.573 16.5921C218.537 16.8947 218.429 17.4999 218.249 18.4076C218.105 19.3154 217.979 20.1055 217.871 20.7779C217.583 22.6271 217.439 24.6108 217.439 26.7289C217.439 31.335 219.041 33.6381 222.245 33.6381C223.433 33.6381 224.801 33.2514 226.349 32.4781C226.817 33.1169 227.051 33.9407 227.051 34.9493C227.051 35.9579 226.457 36.748 225.269 37.3196C224.117 37.8575 222.731 38.1265 221.111 38.1265C214.775 38.1265 211.607 34.7644 211.607 28.0401C211.607 27.0651 211.751 25.3 212.039 22.7448C212.363 20.1896 212.525 18.1219 212.525 16.5417C210.797 16.6425 209.411 16.9283 208.367 17.399C207.935 16.7938 207.719 16.1046 207.719 15.3313C207.719 14.5244 208.025 13.8688 208.637 13.3645C209.249 12.8265 210.005 12.5575 210.905 12.5575C211.805 12.5575 212.399 12.5744 212.687 12.608C212.723 12.339 212.741 11.986 212.741 11.5489C212.741 9.02731 212.435 6.80831 211.823 4.89189Z" fill="#200055"/>
<path d="M0 42.8671H228.239V45.3887H0V42.8671Z" fill="#200055"/>
</svg>
