<svg width="228" height="52" viewBox="0 0 228 52" fill="none" xmlns="http://www.w3.org/2000/svg">
<path d="M21.384 40.818C19.872 41.322 18.504 41.574 17.28 41.574C15.444 41.574 14.004 40.908 12.96 39.576C11.952 38.208 11.124 36.282 10.476 33.798C10.332 33.258 9.82802 31.278 8.96402 27.858C7.27202 21.162 5.90402 16.32 4.86002 13.332C3.81602 10.308 2.28602 8.022 0.27002 6.474C0.70202 5.394 1.40402 4.53 2.37602 3.882C3.38402 3.234 4.55402 2.91 5.88602 2.91C7.21802 2.91 8.31602 3.432 9.18002 4.476C10.044 5.484 10.728 6.726 11.232 8.202C11.772 9.678 12.24 11.1 12.636 12.468C13.032 13.836 13.446 15.528 13.878 17.544C14.346 19.56 14.706 21.198 14.958 22.458C15.246 23.682 15.678 25.806 16.254 28.83C16.866 31.818 17.316 33.996 17.604 35.364C23.652 19.596 26.676 9.066 26.676 3.774C26.676 3.306 26.658 2.964 26.622 2.748C27.162 2.64 27.72 2.586 28.296 2.586C29.736 2.586 30.906 2.946 31.806 3.666C32.742 4.35 33.21 5.34 33.21 6.636C33.21 8.436 31.428 13.764 27.864 22.62C24.336 31.44 22.176 37.506 21.384 40.818Z" fill="#200055"/>
<path d="M84.3126 20.19C86.1846 24.006 88.4706 27.552 91.1706 30.828C93.9066 34.104 96.4626 36.102 98.8386 36.822C98.8386 38.334 98.4426 39.504 97.6506 40.332C96.8586 41.16 95.7246 41.574 94.2486 41.574C92.3046 41.574 90.0546 40.224 87.4986 37.524C84.9786 34.788 82.7646 31.728 80.8566 28.344C78.9486 24.96 77.6166 21.99 76.8606 19.434C80.4246 17.886 83.4666 15.492 85.9866 12.252C88.5066 8.976 89.7666 5.754 89.7666 2.586C91.3146 2.586 92.6466 2.856 93.7626 3.396C94.9146 3.936 95.4906 4.8 95.4906 5.988C95.4906 7.86 94.3746 10.128 92.1426 12.792C89.9106 15.456 87.3006 17.922 84.3126 20.19ZM76.6986 40.602C75.5466 41.034 74.3226 41.25 73.0266 41.25C71.7306 41.25 70.5966 40.836 69.6246 40.008C68.6886 39.18 68.2206 38.046 68.2206 36.606C68.2206 35.166 68.4006 32.412 68.7606 28.344C69.1206 24.24 69.3006 20.964 69.3006 18.516C69.3006 12.216 68.9226 7.23 68.1666 3.558C69.3186 3.126 70.5426 2.91 71.8386 2.91C73.1346 2.91 74.2506 3.324 75.1866 4.152C76.1586 4.98 76.6446 6.114 76.6446 7.554C76.6446 8.994 76.4646 11.766 76.1046 15.87C75.7446 19.938 75.5646 23.196 75.5646 25.644C75.5646 31.944 75.9426 36.93 76.6986 40.602Z" fill="#200055"/>
<path d="M118.314 40.602C117.198 41.034 116.01 41.25 114.75 41.25C113.49 41.25 112.464 40.962 111.672 40.386C110.916 39.774 110.538 38.946 110.538 37.902C110.538 36.822 110.7 34.878 111.024 32.07C111.348 29.262 111.51 26.544 111.51 23.916C111.51 21.252 111.096 18.138 110.268 14.574C111.42 14.142 112.554 13.926 113.67 13.926C114.786 13.926 115.74 14.304 116.532 15.06C117.36 15.816 117.774 16.824 117.774 18.084C117.774 18.732 117.666 19.704 117.45 21C117.234 22.26 117.108 23.214 117.072 23.862C118.476 20.658 120.132 18.156 122.04 16.356C123.984 14.52 125.91 13.602 127.818 13.602C129.15 13.602 130.212 14.07 131.004 15.006C131.796 15.942 132.192 17.13 132.192 18.57C132.192 19.974 131.832 21.126 131.112 22.026C130.392 22.89 129.492 23.322 128.412 23.322C127.368 23.322 126.522 23.214 125.874 22.998C125.982 22.566 126.036 22.17 126.036 21.81C126.036 20.334 125.514 19.596 124.47 19.596C122.886 19.596 121.392 21.198 119.988 24.402C118.62 27.57 117.702 30.54 117.234 33.312C117.414 36.012 117.774 38.442 118.314 40.602Z" fill="#200055"/>
<path d="M167.833 15.816C166.861 19.956 166.375 24.114 166.375 28.29C166.375 32.43 166.843 36.534 167.779 40.602C166.483 41.034 165.151 41.25 163.783 41.25C162.415 41.25 161.461 40.854 160.921 40.062C160.381 39.234 160.111 38.064 160.111 36.552C160.111 35.004 160.345 32.898 160.813 30.234C158.257 35.706 155.791 39.162 153.415 40.602C152.335 41.25 151.219 41.574 150.067 41.574C147.331 41.574 145.207 40.566 143.695 38.55C142.183 36.498 141.427 33.96 141.427 30.936C141.427 26.328 142.705 22.296 145.261 18.84C147.817 15.348 151.129 13.602 155.197 13.602C159.301 13.602 163.513 14.34 167.833 15.816ZM160.759 19.056C158.851 18.48 157.231 18.192 155.899 18.192C153.199 18.192 151.183 18.786 149.851 19.974C148.627 22.998 148.015 26.076 148.015 29.208C148.015 30.864 148.267 32.538 148.771 34.23C149.311 35.922 150.121 36.768 151.201 36.768C152.461 36.768 154.081 34.914 156.061 31.206C158.041 27.498 159.607 23.448 160.759 19.056Z" fill="#200055"/>
<path d="M183.489 32.448C183.489 31.8 183.327 27.588 183.003 19.812C181.239 19.92 179.835 20.226 178.791 20.73C178.359 19.938 178.143 19.11 178.143 18.246C178.143 17.382 178.449 16.68 179.061 16.14C179.673 15.564 180.393 15.276 181.221 15.276C182.049 15.276 182.643 15.294 183.003 15.33C183.183 11.262 184.569 7.824 187.161 5.016C189.753 2.172 193.011 0.75 196.935 0.75C199.131 0.75 200.985 1.218 202.497 2.154C204.009 3.09 204.765 4.476 204.765 6.312C204.765 7.608 204.279 8.706 203.307 9.606C202.335 10.506 201.183 10.956 199.851 10.956C199.563 10.956 199.203 10.92 198.771 10.848C198.879 10.38 198.933 9.966 198.933 9.606C198.933 8.346 198.663 7.338 198.123 6.582C197.583 5.79 196.629 5.394 195.261 5.394C193.893 5.394 192.633 5.79 191.481 6.582C190.761 7.554 190.185 8.904 189.753 10.632C189.321 12.36 189.105 14.052 189.105 15.708H190.347C192.723 15.708 195.549 15.33 198.825 14.574C199.257 15.294 199.473 16.158 199.473 17.166C199.473 18.138 199.059 18.948 198.231 19.596C197.403 20.244 196.359 20.568 195.099 20.568C195.063 20.568 193.029 20.316 188.997 19.812L189.537 47.892C189.537 50.232 188.151 51.402 185.379 51.402C184.443 51.402 183.219 51.186 181.707 50.754C182.895 46.038 183.489 39.936 183.489 32.448Z" fill="#200055"/>
<path d="M211.823 5.988C212.975 5.412 214.145 5.124 215.333 5.124C216.521 5.124 217.475 5.502 218.195 6.258C218.951 7.014 219.329 8.13 219.329 9.606C219.329 11.082 219.239 12.756 219.059 14.628C221.759 14.628 224.333 14.25 226.781 13.494C227.213 14.214 227.429 15.06 227.429 16.032C227.429 16.968 226.997 17.742 226.133 18.354C225.305 18.93 224.459 19.218 223.595 19.218C222.731 19.218 221.759 19.11 220.679 18.894C219.599 18.678 218.897 18.552 218.573 18.516C218.537 18.84 218.429 19.488 218.249 20.46C218.105 21.432 217.979 22.278 217.871 22.998C217.583 24.978 217.439 27.102 217.439 29.37C217.439 34.302 219.041 36.768 222.245 36.768C223.433 36.768 224.801 36.354 226.349 35.526C226.817 36.21 227.051 37.092 227.051 38.172C227.051 39.252 226.457 40.098 225.269 40.71C224.117 41.286 222.731 41.574 221.111 41.574C214.775 41.574 211.607 37.974 211.607 30.774C211.607 29.73 211.751 27.84 212.039 25.104C212.363 22.368 212.525 20.154 212.525 18.462C210.797 18.57 209.411 18.876 208.367 19.38C207.935 18.732 207.719 17.994 207.719 17.166C207.719 16.302 208.025 15.6 208.637 15.06C209.249 14.484 210.005 14.196 210.905 14.196C211.805 14.196 212.399 14.214 212.687 14.25C212.723 13.962 212.741 13.584 212.741 13.116C212.741 10.416 212.435 8.04 211.823 5.988Z" fill="#200055"/>
</svg>
