<svg width="229" height="52" viewBox="0 0 229 52" fill="none" xmlns="http://www.w3.org/2000/svg">
<path d="M21.384 40.568C19.872 41.072 18.504 41.324 17.28 41.324C15.444 41.324 14.004 40.658 12.96 39.326C11.952 37.958 11.124 36.032 10.476 33.548C10.332 33.008 9.828 31.028 8.964 27.608C7.272 20.912 5.904 16.07 4.86 13.082C3.816 10.058 2.286 7.772 0.27 6.224C0.702 5.144 1.404 4.28 2.376 3.632C3.384 2.984 4.554 2.66 5.886 2.66C7.218 2.66 8.316 3.182 9.18 4.226C10.044 5.234 10.728 6.476 11.232 7.952C11.772 9.428 12.24 10.85 12.636 12.218C13.032 13.586 13.446 15.278 13.878 17.294C14.346 19.31 14.706 20.948 14.958 22.208C15.246 23.432 15.678 25.556 16.254 28.58C16.866 31.568 17.316 33.746 17.604 35.114C23.652 19.346 26.676 8.816 26.676 3.524C26.676 3.056 26.658 2.714 26.622 2.498C27.162 2.39 27.72 2.336 28.296 2.336C29.736 2.336 30.906 2.696 31.806 3.416C32.742 4.1 33.21 5.09 33.21 6.386C33.21 8.186 31.428 13.514 27.864 22.37C24.336 31.19 22.176 37.256 21.384 40.568Z" fill="#200055"/>
<path d="M84.3126 19.94C86.1846 23.756 88.4706 27.302 91.1706 30.578C93.9066 33.854 96.4626 35.852 98.8386 36.572C98.8386 38.084 98.4426 39.254 97.6506 40.082C96.8586 40.91 95.7246 41.324 94.2486 41.324C92.3046 41.324 90.0546 39.974 87.4986 37.274C84.9786 34.538 82.7646 31.478 80.8566 28.094C78.9486 24.71 77.6166 21.74 76.8606 19.184C80.4246 17.636 83.4666 15.242 85.9866 12.002C88.5066 8.726 89.7666 5.504 89.7666 2.336C91.3146 2.336 92.6466 2.606 93.7626 3.146C94.9146 3.686 95.4906 4.55 95.4906 5.738C95.4906 7.61 94.3746 9.878 92.1426 12.542C89.9106 15.206 87.3006 17.672 84.3126 19.94ZM76.6986 40.352C75.5466 40.784 74.3226 41 73.0266 41C71.7306 41 70.5966 40.586 69.6246 39.758C68.6886 38.93 68.2206 37.796 68.2206 36.356C68.2206 34.916 68.4006 32.162 68.7606 28.094C69.1206 23.99 69.3006 20.714 69.3006 18.266C69.3006 11.966 68.9226 6.98 68.1666 3.308C69.3186 2.876 70.5426 2.66 71.8386 2.66C73.1346 2.66 74.2506 3.074 75.1866 3.902C76.1586 4.73 76.6446 5.864 76.6446 7.304C76.6446 8.744 76.4646 11.516 76.1046 15.62C75.7446 19.688 75.5646 22.946 75.5646 25.394C75.5646 31.694 75.9426 36.68 76.6986 40.352Z" fill="#200055"/>
<path d="M118.314 40.352C117.198 40.784 116.01 41 114.75 41C113.49 41 112.464 40.712 111.672 40.136C110.916 39.524 110.538 38.696 110.538 37.652C110.538 36.572 110.7 34.628 111.024 31.82C111.348 29.012 111.51 26.294 111.51 23.666C111.51 21.002 111.096 17.888 110.268 14.324C111.42 13.892 112.554 13.676 113.67 13.676C114.786 13.676 115.74 14.054 116.532 14.81C117.36 15.566 117.774 16.574 117.774 17.834C117.774 18.482 117.666 19.454 117.45 20.75C117.234 22.01 117.108 22.964 117.072 23.612C118.476 20.408 120.132 17.906 122.04 16.106C123.984 14.27 125.91 13.352 127.818 13.352C129.15 13.352 130.212 13.82 131.004 14.756C131.796 15.692 132.192 16.88 132.192 18.32C132.192 19.724 131.832 20.876 131.112 21.776C130.392 22.64 129.492 23.072 128.412 23.072C127.368 23.072 126.522 22.964 125.874 22.748C125.982 22.316 126.036 21.92 126.036 21.56C126.036 20.084 125.514 19.346 124.47 19.346C122.886 19.346 121.392 20.948 119.988 24.152C118.62 27.32 117.702 30.29 117.234 33.062C117.414 35.762 117.774 38.192 118.314 40.352Z" fill="#200055"/>
<path d="M167.833 15.566C166.861 19.706 166.375 23.864 166.375 28.04C166.375 32.18 166.843 36.284 167.779 40.352C166.483 40.784 165.151 41 163.783 41C162.415 41 161.461 40.604 160.921 39.812C160.381 38.984 160.111 37.814 160.111 36.302C160.111 34.754 160.345 32.648 160.813 29.984C158.257 35.456 155.791 38.912 153.415 40.352C152.335 41 151.219 41.324 150.067 41.324C147.331 41.324 145.207 40.316 143.695 38.3C142.183 36.248 141.427 33.71 141.427 30.686C141.427 26.078 142.705 22.046 145.261 18.59C147.817 15.098 151.129 13.352 155.197 13.352C159.301 13.352 163.513 14.09 167.833 15.566ZM160.759 18.806C158.851 18.23 157.231 17.942 155.899 17.942C153.199 17.942 151.183 18.536 149.851 19.724C148.627 22.748 148.015 25.826 148.015 28.958C148.015 30.614 148.267 32.288 148.771 33.98C149.311 35.672 150.121 36.518 151.201 36.518C152.461 36.518 154.081 34.664 156.061 30.956C158.041 27.248 159.607 23.198 160.759 18.806Z" fill="#200055"/>
<path d="M183.489 32.198C183.489 31.55 183.327 27.338 183.003 19.562C181.239 19.67 179.835 19.976 178.791 20.48C178.359 19.688 178.143 18.86 178.143 17.996C178.143 17.132 178.449 16.43 179.061 15.89C179.673 15.314 180.393 15.026 181.221 15.026C182.049 15.026 182.643 15.044 183.003 15.08C183.183 11.012 184.569 7.574 187.161 4.766C189.753 1.922 193.011 0.5 196.935 0.5C199.131 0.5 200.985 0.968 202.497 1.904C204.009 2.84 204.765 4.226 204.765 6.062C204.765 7.358 204.279 8.456 203.307 9.356C202.335 10.256 201.183 10.706 199.851 10.706C199.563 10.706 199.203 10.67 198.771 10.598C198.879 10.13 198.933 9.716 198.933 9.356C198.933 8.096 198.663 7.088 198.123 6.332C197.583 5.54 196.629 5.144 195.261 5.144C193.893 5.144 192.633 5.54 191.481 6.332C190.761 7.304 190.185 8.654 189.753 10.382C189.321 12.11 189.105 13.802 189.105 15.458H190.347C192.723 15.458 195.549 15.08 198.825 14.324C199.257 15.044 199.473 15.908 199.473 16.916C199.473 17.888 199.059 18.698 198.231 19.346C197.403 19.994 196.359 20.318 195.099 20.318C195.063 20.318 193.029 20.066 188.997 19.562L189.537 47.642C189.537 49.982 188.151 51.152 185.379 51.152C184.443 51.152 183.219 50.936 181.707 50.504C182.895 45.788 183.489 39.686 183.489 32.198Z" fill="#200055"/>
<path d="M211.823 5.738C212.975 5.162 214.145 4.874 215.333 4.874C216.521 4.874 217.475 5.252 218.195 6.008C218.951 6.764 219.329 7.88 219.329 9.356C219.329 10.832 219.239 12.506 219.059 14.378C221.759 14.378 224.333 14 226.781 13.244C227.213 13.964 227.429 14.81 227.429 15.782C227.429 16.718 226.997 17.492 226.133 18.104C225.305 18.68 224.459 18.968 223.595 18.968C222.731 18.968 221.759 18.86 220.679 18.644C219.599 18.428 218.897 18.302 218.573 18.266C218.537 18.59 218.429 19.238 218.249 20.21C218.105 21.182 217.979 22.028 217.871 22.748C217.583 24.728 217.439 26.852 217.439 29.12C217.439 34.052 219.041 36.518 222.245 36.518C223.433 36.518 224.801 36.104 226.349 35.276C226.817 35.96 227.051 36.842 227.051 37.922C227.051 39.002 226.457 39.848 225.269 40.46C224.117 41.036 222.731 41.324 221.111 41.324C214.775 41.324 211.607 37.724 211.607 30.524C211.607 29.48 211.751 27.59 212.039 24.854C212.363 22.118 212.525 19.904 212.525 18.212C210.797 18.32 209.411 18.626 208.367 19.13C207.935 18.482 207.719 17.744 207.719 16.916C207.719 16.052 208.025 15.35 208.637 14.81C209.249 14.234 210.005 13.946 210.905 13.946C211.805 13.946 212.399 13.964 212.687 14C212.723 13.712 212.741 13.334 212.741 12.866C212.741 10.166 212.435 7.79 211.823 5.738Z" fill="#200055"/>
<path d="M0 46.4H228.239V49.1H0V46.4Z" fill="#200055"/>
</svg>
