<svg width="228" height="59" viewBox="0 0 228 59" fill="none" xmlns="http://www.w3.org/2000/svg">
<path d="M21.384 46.3346C19.872 46.9104 18.504 47.1983 17.28 47.1983C15.444 47.1983 14.004 46.4374 12.96 44.9156C11.952 43.3527 11.124 41.1522 10.476 38.3142C10.332 37.6973 9.82802 35.4351 8.96402 31.5278C7.27202 23.8776 5.90402 18.3456 4.86002 14.9318C3.81602 11.4769 2.28602 8.86515 0.27002 7.09656C0.70202 5.86266 1.40402 4.87554 2.37602 4.1352C3.38402 3.39486 4.55402 3.02469 5.88602 3.02469C7.21802 3.02469 8.31602 3.62107 9.18002 4.81384C10.044 5.96548 10.728 7.38447 11.232 9.0708C11.772 10.7571 12.24 12.3818 12.636 13.9447C13.032 15.5076 13.446 17.4408 13.878 19.744C14.346 22.0473 14.706 23.9187 14.958 25.3583C15.246 26.7567 15.678 29.1834 16.254 32.6383C16.866 36.0521 17.316 38.5404 17.604 40.1034C23.652 22.0884 26.676 10.0579 26.676 4.01181C26.676 3.47712 26.658 3.08638 26.622 2.8396C27.162 2.71621 27.72 2.65452 28.296 2.65452C29.736 2.65452 30.906 3.06582 31.806 3.88842C32.742 4.66989 33.21 5.80096 33.21 7.28164C33.21 9.33814 31.428 15.4254 27.864 25.5434C24.336 35.6202 22.176 42.5506 21.384 46.3346Z" fill="#200055"/>
<path d="M84.3126 22.7671C86.1846 27.1269 88.4706 31.1782 91.1706 34.921C93.9066 38.6638 96.4626 40.9465 98.8386 41.7691C98.8386 43.4966 98.4426 44.8333 97.6506 45.7793C96.8586 46.7253 95.7246 47.1983 94.2486 47.1983C92.3046 47.1983 90.0546 45.6559 87.4986 42.5712C84.9786 39.4453 82.7646 35.9493 80.8566 32.083C78.9486 28.2168 77.6166 24.8236 76.8606 21.9034C80.4246 20.1348 83.4666 17.3996 85.9866 13.6979C88.5066 9.95509 89.7666 6.27396 89.7666 2.65452C91.3146 2.65452 92.6466 2.96299 93.7626 3.57994C94.9146 4.19689 95.4906 5.18401 95.4906 6.5413C95.4906 8.68006 94.3746 11.2713 92.1426 14.3149C89.9106 17.3585 87.3006 20.1759 84.3126 22.7671ZM76.6986 46.0878C75.5466 46.5814 74.3226 46.8281 73.0266 46.8281C71.7306 46.8281 70.5966 46.3551 69.6246 45.4092C68.6886 44.4632 68.2206 43.1676 68.2206 41.5224C68.2206 39.8772 68.4006 36.7307 68.7606 32.083C69.1206 27.3942 69.3006 23.6514 69.3006 20.8545C69.3006 13.6568 68.9226 7.96029 68.1666 3.76503C69.3186 3.27147 70.5426 3.02469 71.8386 3.02469C73.1346 3.02469 74.2506 3.49768 75.1866 4.44367C76.1586 5.38966 76.6446 6.68526 76.6446 8.33046C76.6446 9.97566 76.4646 13.1427 76.1046 17.8315C75.7446 22.4792 75.5646 26.2014 75.5646 28.9983C75.5646 36.196 75.9426 41.8925 76.6986 46.0878Z" fill="#200055"/>
<path d="M118.314 46.0878C117.198 46.5814 116.01 46.8281 114.75 46.8281C113.49 46.8281 112.464 46.4991 111.672 45.841C110.916 45.1418 110.538 44.1958 110.538 43.0031C110.538 41.7692 110.7 39.5481 111.024 36.34C111.348 33.1318 111.51 30.0265 111.51 27.024C111.51 23.9804 111.096 20.4227 110.268 16.3508C111.42 15.8572 112.554 15.6105 113.67 15.6105C114.786 15.6105 115.74 16.0423 116.532 16.9061C117.36 17.7698 117.774 18.9214 117.774 20.361C117.774 21.1013 117.666 22.2118 117.45 23.6925C117.234 25.1321 117.108 26.222 117.072 26.9623C118.476 23.3018 120.132 20.4432 122.04 18.3867C123.984 16.2891 125.91 15.2403 127.818 15.2403C129.15 15.2403 130.212 15.775 131.004 16.8444C131.796 17.9137 132.192 19.271 132.192 20.9162C132.192 22.5203 131.832 23.8365 131.112 24.8647C130.392 25.8518 129.492 26.3454 128.412 26.3454C127.368 26.3454 126.522 26.222 125.874 25.9752C125.982 25.4817 126.036 25.0292 126.036 24.6179C126.036 22.9316 125.514 22.0884 124.47 22.0884C122.886 22.0884 121.392 23.9187 119.988 27.5793C118.62 31.1987 117.702 34.592 117.234 37.759C117.414 40.8437 117.774 43.62 118.314 46.0878Z" fill="#200055"/>
<path d="M167.833 17.7698C166.861 22.4997 166.375 27.2503 166.375 32.0213C166.375 36.7513 166.843 41.4401 167.779 46.0878C166.483 46.5814 165.151 46.8281 163.783 46.8281C162.415 46.8281 161.461 46.3757 160.921 45.4709C160.381 44.5249 160.111 43.1881 160.111 41.4607C160.111 39.6921 160.345 37.286 160.813 34.2424C158.257 40.4941 155.791 44.4426 153.415 46.0878C152.335 46.8281 151.219 47.1983 150.067 47.1983C147.331 47.1983 145.207 46.0467 143.695 43.7434C142.183 41.399 141.427 38.4993 141.427 35.0444C141.427 29.7798 142.705 25.1732 145.261 21.2247C147.817 17.2351 151.129 15.2403 155.197 15.2403C159.301 15.2403 163.513 16.0835 167.833 17.7698ZM160.759 21.4715C158.851 20.8134 157.231 20.4844 155.899 20.4844C153.199 20.4844 151.183 21.163 149.851 22.5203C148.627 25.9752 148.015 29.4918 148.015 33.0702C148.015 34.9621 148.267 36.8747 148.771 38.8078C149.311 40.7409 150.121 41.7075 151.201 41.7075C152.461 41.7075 154.081 39.5893 156.061 35.3529C158.041 31.1165 159.607 26.4894 160.759 21.4715Z" fill="#200055"/>
<path d="M183.489 36.7719C183.489 36.0315 183.327 31.2193 183.003 22.3352C181.239 22.4586 179.835 22.8082 178.791 23.384C178.359 22.4792 178.143 21.5332 178.143 20.5461C178.143 19.5589 178.449 18.7569 179.061 18.14C179.673 17.4819 180.393 17.1528 181.221 17.1528C182.049 17.1528 182.643 17.1734 183.003 17.2145C183.183 12.5668 184.569 8.63893 187.161 5.43079C189.753 2.18152 193.011 0.556885 196.935 0.556885C199.131 0.556885 200.985 1.09158 202.497 2.16096C204.009 3.23034 204.765 4.81384 204.765 6.91147C204.765 8.39215 204.279 9.64662 203.307 10.6749C202.335 11.7031 201.183 12.2172 199.851 12.2172C199.563 12.2172 199.203 12.1761 198.771 12.0939C198.879 11.5592 198.933 11.0862 198.933 10.6749C198.933 9.23532 198.663 8.08368 198.123 7.21995C197.583 6.31509 196.629 5.86266 195.261 5.86266C193.893 5.86266 192.633 6.31509 191.481 7.21995C190.761 8.33046 190.185 9.87283 189.753 11.8471C189.321 13.8213 189.105 15.7544 189.105 17.6464H190.347C192.723 17.6464 195.549 17.2145 198.825 16.3508C199.257 17.1734 199.473 18.1605 199.473 19.3122C199.473 20.4227 199.059 21.3481 198.231 22.0884C197.403 22.8288 196.359 23.199 195.099 23.199C195.063 23.199 193.029 22.911 188.997 22.3352L189.537 54.4166C189.537 57.0901 188.151 58.4268 185.379 58.4268C184.443 58.4268 183.219 58.18 181.707 57.6865C182.895 52.2984 183.489 45.3269 183.489 36.7719Z" fill="#200055"/>
<path d="M211.823 6.5413C212.975 5.88322 214.145 5.55418 215.333 5.55418C216.521 5.55418 217.475 5.98605 218.195 6.84978C218.951 7.71351 219.329 8.98854 219.329 10.6749C219.329 12.3612 219.239 14.2737 219.059 16.4125C221.759 16.4125 224.333 15.9806 226.781 15.1169C227.213 15.9395 227.429 16.9061 227.429 18.0166C227.429 19.086 226.997 19.9702 226.133 20.6695C225.305 21.3275 224.459 21.6566 223.595 21.6566C222.731 21.6566 221.759 21.5332 220.679 21.2864C219.599 21.0396 218.897 20.8957 218.573 20.8545C218.537 21.2247 218.429 21.9651 218.249 23.0756C218.105 24.1861 217.979 25.1526 217.871 25.9752C217.583 28.2374 217.439 30.664 217.439 33.2552C217.439 38.89 219.041 41.7075 222.245 41.7075C223.433 41.7075 224.801 41.2345 226.349 40.2885C226.817 41.0699 227.051 42.0776 227.051 43.3115C227.051 44.5454 226.457 45.512 225.269 46.2112C224.117 46.8693 222.731 47.1983 221.111 47.1983C214.775 47.1983 211.607 43.0853 211.607 34.8593C211.607 33.6665 211.751 31.5072 212.039 28.3813C212.363 25.2555 212.525 22.726 212.525 20.7928C210.797 20.9162 209.411 21.2658 208.367 21.8417C207.935 21.1013 207.719 20.2582 207.719 19.3122C207.719 18.325 208.025 17.523 208.637 16.9061C209.249 16.248 210.005 15.9189 210.905 15.9189C211.805 15.9189 212.399 15.9395 212.687 15.9806C212.723 15.6516 212.741 15.2197 212.741 14.685C212.741 11.6003 212.435 8.88571 211.823 6.5413Z" fill="#200055"/>
</svg>
