<svg width="24" height="17" viewBox="0 0 24 17" fill="none" xmlns="http://www.w3.org/2000/svg">
<path d="M11.6818 5.11474L4.00032 10.5231V16.3604C4.00032 16.5115 4.07055 16.6565 4.19556 16.7633C4.32058 16.8702 4.49013 16.9303 4.66693 16.9303L9.33574 16.9199C9.51196 16.9192 9.68066 16.8588 9.80495 16.752C9.92925 16.6452 9.99902 16.5007 9.99902 16.3501V12.9412C9.99902 12.79 10.0693 12.6451 10.1943 12.5382C10.3193 12.4313 10.4888 12.3713 10.6656 12.3713H13.3321C13.5089 12.3713 13.6785 12.4313 13.8035 12.5382C13.9285 12.6451 13.9987 12.79 13.9987 12.9412V16.3476C13.9984 16.4225 14.0155 16.4968 14.0489 16.5662C14.0822 16.6355 14.1313 16.6986 14.1932 16.7517C14.2552 16.8048 14.3287 16.8469 14.4097 16.8757C14.4908 16.9044 14.5776 16.9192 14.6653 16.9192L19.3325 16.9303C19.5093 16.9303 19.6788 16.8702 19.8038 16.7633C19.9289 16.6565 19.9991 16.5115 19.9991 16.3604V10.5192L12.3193 5.11474C12.229 5.05252 12.1165 5.0186 12.0005 5.0186C11.8846 5.0186 11.7721 5.05252 11.6818 5.11474ZM23.8155 8.79075L20.3324 6.33639V1.40311C20.3324 1.28976 20.2797 1.18104 20.186 1.10089C20.0922 1.02074 19.965 0.975708 19.8324 0.975708H17.4993C17.3667 0.975708 17.2395 1.02074 17.1458 1.10089C17.052 1.18104 16.9993 1.28976 16.9993 1.40311V3.98925L13.2692 1.36571C12.9112 1.11389 12.462 0.976211 11.9985 0.976211C11.5349 0.976211 11.0857 1.11389 10.7277 1.36571L0.181444 8.79075C0.130818 8.82652 0.0889323 8.87047 0.0581813 8.92008C0.0274303 8.96969 0.00841634 9.024 0.00222573 9.0799C-0.00396488 9.1358 0.00278923 9.19219 0.0221021 9.24586C0.0414151 9.29953 0.0729083 9.34941 0.114782 9.39267L1.1772 10.4968C1.21896 10.5402 1.27033 10.5761 1.32835 10.6026C1.38638 10.629 1.44994 10.6453 1.51538 10.6507C1.58082 10.6561 1.64686 10.6504 1.70973 10.634C1.77259 10.6175 1.83104 10.5906 1.88173 10.5548L11.6818 3.65445C11.7721 3.59223 11.8846 3.55831 12.0005 3.55831C12.1165 3.55831 12.229 3.59223 12.3193 3.65445L22.1198 10.5548C22.1704 10.5906 22.2287 10.6176 22.2915 10.6341C22.3543 10.6506 22.4202 10.6564 22.4856 10.6511C22.551 10.6458 22.6145 10.6295 22.6726 10.6032C22.7306 10.5769 22.782 10.5411 22.8239 10.4979L23.8863 9.39374C23.9281 9.35023 23.9595 9.30009 23.9786 9.24619C23.9976 9.19228 24.0041 9.13569 23.9975 9.07966C23.9909 9.02362 23.9714 8.96925 23.9402 8.91967C23.909 8.87009 23.8666 8.82628 23.8155 8.79075Z" fill="black"/>
</svg>
