<svg width="21" height="23" viewBox="0 0 21 23" fill="none" xmlns="http://www.w3.org/2000/svg">
<path d="M15.0086 14.3061H14.06L13.7238 13.9778C14.9412 12.5479 15.6102 10.7225 15.6089 8.83453C15.6089 7.2714 15.1512 5.74337 14.2936 4.44367C13.4361 3.14397 12.2172 2.13098 10.7911 1.53279C9.36502 0.934607 7.7958 0.778095 6.28189 1.08305C4.76797 1.388 3.37735 2.14072 2.28588 3.24602C1.1944 4.35133 0.451101 5.75957 0.149964 7.29267C-0.151173 8.82576 0.00338155 10.4149 0.594083 11.859C1.18478 13.3032 2.1851 14.5375 3.46854 15.4059C4.75197 16.2744 6.26089 16.7379 7.80446 16.7379C9.73757 16.7379 11.5146 16.0205 12.8834 14.8289L13.2075 15.1694V16.1299L19.211 22.1973L21 20.3856L15.0086 14.3061ZM7.80446 14.3061C4.81475 14.3061 2.40138 11.8621 2.40138 8.83453C2.40138 5.80694 4.81475 3.36299 7.80446 3.36299C10.7942 3.36299 13.2075 5.80694 13.2075 8.83453C13.2075 11.8621 10.7942 14.3061 7.80446 14.3061Z" fill="black"/>
</svg>
