<svg width="37" height="29" viewBox="0 0 37 29" fill="none" xmlns="http://www.w3.org/2000/svg">
<path d="M28.9781 9.05529V7.28256C28.9781 3.37259 24.2949 0.19165 18.5385 0.19165C12.7821 0.19165 8.09896 3.37259 8.09896 7.28256V9.05529H0.269287V24.1235C0.269287 26.5711 3.19049 28.5553 6.79401 28.5553H30.283C33.8865 28.5553 36.8077 26.5711 36.8077 24.1235V9.05529H28.9781ZM13.3187 7.28256C13.3187 5.32757 15.6603 3.7371 18.5385 3.7371C21.4167 3.7371 23.7583 5.32757 23.7583 7.28256V9.05529H13.3187V7.28256ZM26.3682 13.9303C25.2871 13.9303 24.4108 13.335 24.4108 12.6007C24.4108 11.8664 25.2871 11.2712 26.3682 11.2712C27.4493 11.2712 28.3256 11.8664 28.3256 12.6007C28.3256 13.335 27.4493 13.9303 26.3682 13.9303ZM10.7088 13.9303C9.62778 13.9303 8.75143 13.335 8.75143 12.6007C8.75143 11.8664 9.62778 11.2712 10.7088 11.2712C11.7899 11.2712 12.6663 11.8664 12.6663 12.6007C12.6663 13.335 11.7899 13.9303 10.7088 13.9303Z" fill="#FF9213"/>
</svg>
