<svg width="37" height="34" viewBox="0 0 37 34" fill="none" xmlns="http://www.w3.org/2000/svg">
<path d="M28.978 10.8932V8.86781C28.978 4.40067 24.2948 0.766449 18.5385 0.766449C12.782 0.766449 8.0989 4.40067 8.0989 8.86781V10.8932H0.269226V28.1085C0.269226 30.905 3.19043 33.1719 6.79395 33.1719H30.283C33.8865 33.1719 36.8077 30.905 36.8077 28.1085V10.8932H28.978ZM13.3187 8.86781C13.3187 6.63424 15.6602 4.81713 18.5385 4.81713C21.4167 4.81713 23.7582 6.63424 23.7582 8.86781V10.8932H13.3187V8.86781ZM26.3681 16.4628C25.2871 16.4628 24.4107 15.7828 24.4107 14.9438C24.4107 14.1049 25.2871 13.4248 26.3681 13.4248C27.4492 13.4248 28.3255 14.1049 28.3255 14.9438C28.3255 15.7828 27.4492 16.4628 26.3681 16.4628ZM10.7088 16.4628C9.62772 16.4628 8.75137 15.7828 8.75137 14.9438C8.75137 14.1049 9.62772 13.4248 10.7088 13.4248C11.7899 13.4248 12.6662 14.1049 12.6662 14.9438C12.6662 15.7828 11.7899 16.4628 10.7088 16.4628Z" fill="#FF9213"/>
</svg>
