<svg width="19" height="11" viewBox="0 0 19 11" fill="none" xmlns="http://www.w3.org/2000/svg">
<path d="M9.11609 10.0521C8.90084 10.0521 8.69259 10.0149 8.49133 9.94048C8.289 9.86605 8.12057 9.76682 7.98604 9.64277L0.560034 2.79544C0.26407 2.52254 0.116089 2.17521 0.116089 1.75346C0.116089 1.3317 0.26407 0.984375 0.560034 0.711475C0.855999 0.438574 1.23268 0.302124 1.69008 0.302124C2.14748 0.302124 2.52416 0.438574 2.82012 0.711475L9.11609 6.51682L15.4121 0.711475C15.708 0.438574 16.0847 0.302124 16.5421 0.302124C16.9995 0.302124 17.3762 0.438574 17.6721 0.711475C17.9681 0.984375 18.1161 1.3317 18.1161 1.75346C18.1161 2.17521 17.9681 2.52254 17.6721 2.79544L10.2461 9.64277C10.0847 9.79163 9.90981 9.89682 9.72147 9.95834C9.53313 10.0209 9.33134 10.0521 9.11609 10.0521Z" fill="black"/>
</svg>
