<svg width="25" height="17" viewBox="0 0 25 17" fill="none" xmlns="http://www.w3.org/2000/svg">
<path d="M0.0850001 1.69084L11.1787 10.6793C11.5069 10.9454 11.9453 11.1033 12.409 11.1226C12.8727 11.1419 13.3287 11.0211 13.6888 10.7836L13.8312 10.6793L24.9175 1.69692C24.9538 1.80831 24.9775 1.92173 24.99 2.03819L25 2.2154V14.3674C25.0002 14.8784 24.762 15.3706 24.3331 15.7452C23.9043 16.1199 23.3164 16.3494 22.6875 16.3877L22.5 16.3928H2.5C1.86928 16.3929 1.26179 16.2 0.799315 15.8525C0.336838 15.5051 0.0535541 15.0289 0.00625014 14.5193L0 14.3674V2.2154C0 2.09388 0.0125 1.97641 0.0375 1.86097L0.0850001 1.69084V1.69084ZM22.5 0.190063C22.6512 0.190063 22.8 0.20019 22.9437 0.221456L23.1562 0.260951L12.5063 8.8889L1.8525 0.258925C1.99 0.228545 2.1325 0.208291 2.2775 0.198165L2.5 0.190063H22.5Z" fill="black"/>
</svg>
