<svg width="59" height="46" viewBox="0 0 59 46" fill="none" xmlns="http://www.w3.org/2000/svg">
<path d="M53.7783 27.0398L58.592 8.93835C58.9396 7.63139 57.7772 6.38683 56.2089 6.38683H16.2121L15.2787 2.48717C15.0461 1.51518 14.0454 0.817139 12.8844 0.817139H2.44391C1.09416 0.817139 0 1.75224 0 2.90577V4.29819C0 5.45173 1.09416 6.38683 2.44391 6.38683H9.56007L16.7134 36.2747C15.002 37.1158 13.8488 38.6929 13.8488 40.5012C13.8488 43.1927 16.4019 45.3746 19.5513 45.3746C22.7007 45.3746 25.2537 43.1927 25.2537 40.5012C25.2537 39.1371 24.5972 37.9047 23.5406 37.0201H44.8888C43.8323 37.9047 43.1758 39.1371 43.1758 40.5012C43.1758 43.1927 45.7288 45.3746 48.8782 45.3746C52.0276 45.3746 54.5807 43.1927 54.5807 40.5012C54.5807 38.5716 53.2683 36.9042 51.365 36.1146L51.9268 34.0019C52.2743 32.695 51.1119 31.4504 49.5437 31.4504H22.2108L21.5443 28.6656H51.3951C52.5362 28.6656 53.5254 27.9908 53.7783 27.0398Z" fill="#FF9213"/>
</svg>
