<svg width="24" height="19" viewBox="0 0 24 19" fill="none" xmlns="http://www.w3.org/2000/svg">
<path d="M11.6818 5.10112L4.00032 11.2802V17.9493C4.00032 18.122 4.07055 18.2876 4.19556 18.4097C4.32058 18.5318 4.49013 18.6004 4.66693 18.6004L9.33574 18.5886C9.51196 18.5877 9.68066 18.5187 9.80495 18.3967C9.92925 18.2747 9.99902 18.1096 9.99902 17.9375V14.0428C9.99902 13.8702 10.0693 13.7045 10.1943 13.5824C10.3193 13.4603 10.4888 13.3918 10.6656 13.3918H13.3321C13.5089 13.3918 13.6785 13.4603 13.8035 13.5824C13.9285 13.7045 13.9987 13.8702 13.9987 14.0428V17.9346C13.9984 18.0203 14.0155 18.1052 14.0489 18.1844C14.0822 18.2636 14.1313 18.3357 14.1932 18.3963C14.2552 18.457 14.3287 18.5051 14.4097 18.538C14.4908 18.5708 14.5776 18.5877 14.6653 18.5877L19.3325 18.6004C19.5093 18.6004 19.6788 18.5318 19.8038 18.4097C19.9289 18.2876 19.9991 18.122 19.9991 17.9493V11.2758L12.3193 5.10112C12.229 5.03004 12.1165 4.99128 12.0005 4.99128C11.8846 4.99128 11.7721 5.03004 11.6818 5.10112V5.10112ZM23.8155 9.30097L20.3324 6.49687V0.86059C20.3324 0.731083 20.2797 0.606881 20.186 0.515306C20.0922 0.42373 19.965 0.372284 19.8324 0.372284H17.4993C17.3667 0.372284 17.2395 0.42373 17.1457 0.515306C17.052 0.606881 16.9993 0.731083 16.9993 0.86059V3.81525L13.2692 0.817864C12.9112 0.530161 12.462 0.372859 11.9984 0.372859C11.5349 0.372859 11.0857 0.530161 10.7277 0.817864L0.181444 9.30097C0.130818 9.34183 0.0889323 9.39204 0.0581813 9.44873C0.0274303 9.50541 0.00841634 9.56746 0.00222573 9.63132C-0.00396488 9.69519 0.00278923 9.75962 0.0221021 9.82093C0.041415 9.88225 0.0729083 9.93924 0.114782 9.98866L1.1772 11.2501C1.21896 11.2997 1.27033 11.3408 1.32835 11.371C1.38638 11.4011 1.44994 11.4198 1.51538 11.426C1.58082 11.4322 1.64686 11.4257 1.70973 11.4069C1.77259 11.3881 1.83104 11.3573 1.88173 11.3165L11.6818 3.43274C11.7721 3.36167 11.8846 3.3229 12.0005 3.3229C12.1165 3.3229 12.229 3.36167 12.3193 3.43274L22.1198 11.3165C22.1704 11.3573 22.2287 11.3881 22.2915 11.407C22.3543 11.4258 22.4202 11.4324 22.4856 11.4264C22.551 11.4203 22.6145 11.4018 22.6726 11.3717C22.7306 11.3417 22.782 11.3008 22.8239 11.2513L23.8863 9.98988C23.9281 9.94018 23.9595 9.88289 23.9786 9.8213C23.9976 9.75972 24.0041 9.69506 23.9975 9.63104C23.9909 9.56702 23.9714 9.50491 23.9402 9.44826C23.909 9.39161 23.8666 9.34156 23.8155 9.30097V9.30097Z" fill="black"/>
</svg>
