<svg width="37" height="29" viewBox="0 0 37 29" fill="none" xmlns="http://www.w3.org/2000/svg">
<path d="M28.978 9.05529V7.28256C28.978 3.37259 24.2948 0.19165 18.5385 0.19165C12.782 0.19165 8.0989 3.37259 8.0989 7.28256V9.05529H0.269226V24.1235C0.269226 26.5711 3.19043 28.5553 6.79395 28.5553H30.283C33.8865 28.5553 36.8077 26.5711 36.8077 24.1235V9.05529H28.978ZM13.3187 7.28256C13.3187 5.32757 15.6602 3.7371 18.5385 3.7371C21.4167 3.7371 23.7582 5.32757 23.7582 7.28256V9.05529H13.3187V7.28256ZM26.3681 13.9303C25.2871 13.9303 24.4107 13.335 24.4107 12.6007C24.4107 11.8664 25.2871 11.2712 26.3681 11.2712C27.4492 11.2712 28.3255 11.8664 28.3255 12.6007C28.3255 13.335 27.4492 13.9303 26.3681 13.9303ZM10.7088 13.9303C9.62772 13.9303 8.75137 13.335 8.75137 12.6007C8.75137 11.8664 9.62772 11.2712 10.7088 11.2712C11.7899 11.2712 12.6662 11.8664 12.6662 12.6007C12.6662 13.335 11.7899 13.9303 10.7088 13.9303Z" fill="#FF9213"/>
</svg>
