<svg width="24" height="17" viewBox="0 0 24 17" fill="none" xmlns="http://www.w3.org/2000/svg">
<path d="M11.6818 5.11486L4.00032 10.5233V16.3605C4.00032 16.5116 4.07055 16.6566 4.19556 16.7635C4.32058 16.8703 4.49013 16.9304 4.66693 16.9304L9.33574 16.92C9.51196 16.9193 9.68066 16.8589 9.80495 16.7521C9.92925 16.6453 9.99902 16.5008 9.99902 16.3502V12.9413C9.99902 12.7902 10.0693 12.6452 10.1943 12.5383C10.3193 12.4315 10.4888 12.3714 10.6656 12.3714H13.3321C13.5089 12.3714 13.6785 12.4315 13.8035 12.5383C13.9285 12.6452 13.9987 12.7902 13.9987 12.9413V16.3477C13.9984 16.4227 14.0155 16.497 14.0489 16.5663C14.0822 16.6357 14.1313 16.6987 14.1932 16.7518C14.2552 16.8049 14.3287 16.847 14.4097 16.8758C14.4908 16.9045 14.5776 16.9193 14.6653 16.9193L19.3325 16.9304C19.5093 16.9304 19.6788 16.8703 19.8038 16.7635C19.9289 16.6566 19.9991 16.5116 19.9991 16.3605V10.5194L12.3193 5.11486C12.229 5.05264 12.1165 5.01872 12.0005 5.01872C11.8846 5.01872 11.7721 5.05264 11.6818 5.11486ZM23.8155 8.79087L20.3324 6.33651V1.40323C20.3324 1.28988 20.2797 1.18117 20.186 1.10101C20.0922 1.02086 19.965 0.97583 19.8324 0.97583H17.4993C17.3667 0.97583 17.2395 1.02086 17.1458 1.10101C17.052 1.18117 16.9993 1.28988 16.9993 1.40323V3.98937L13.2692 1.36583C12.9112 1.11402 12.462 0.976333 11.9985 0.976333C11.5349 0.976333 11.0857 1.11402 10.7277 1.36583L0.181444 8.79087C0.130818 8.82664 0.0889323 8.87059 0.0581813 8.9202C0.0274303 8.96982 0.00841634 9.02413 0.00222573 9.08002C-0.00396488 9.13592 0.00278923 9.19232 0.0221021 9.24598C0.0414151 9.29965 0.0729083 9.34953 0.114782 9.39279L1.1772 10.4969C1.21896 10.5403 1.27033 10.5763 1.32835 10.6027C1.38638 10.6291 1.44994 10.6455 1.51538 10.6509C1.58082 10.6563 1.64686 10.6506 1.70973 10.6341C1.77259 10.6177 1.83104 10.5908 1.88173 10.555L11.6818 3.65457C11.7721 3.59236 11.8846 3.55843 12.0005 3.55843C12.1165 3.55843 12.229 3.59236 12.3193 3.65457L22.1198 10.555C22.1704 10.5908 22.2287 10.6177 22.2915 10.6342C22.3543 10.6507 22.4202 10.6565 22.4856 10.6512C22.551 10.6459 22.6145 10.6296 22.6726 10.6034C22.7306 10.5771 22.782 10.5413 22.8239 10.498L23.8863 9.39386C23.9281 9.35035 23.9595 9.30021 23.9786 9.24631C23.9976 9.19241 24.0041 9.13581 23.9975 9.07978C23.9909 9.02374 23.9714 8.96937 23.9402 8.91979C23.909 8.87021 23.8666 8.8264 23.8155 8.79087Z" fill="black"/>
</svg>
