<svg width="59" height="40" viewBox="0 0 59 40" fill="none" xmlns="http://www.w3.org/2000/svg">
<path d="M53.7783 23.6891L58.592 7.84534C58.9396 6.70139 57.7772 5.61206 56.2089 5.61206H16.2121L15.2787 2.1988C15.0461 1.34804 14.0454 0.737061 12.8844 0.737061H2.44391C1.09416 0.737061 0 1.55553 0 2.56519V3.78394C0 4.79359 1.09416 5.61206 2.44391 5.61206H9.56007L16.7134 31.7721C15.002 32.5083 13.8488 33.8887 13.8488 35.4714C13.8488 37.8273 16.4019 39.7371 19.5513 39.7371C22.7007 39.7371 25.2537 37.8273 25.2537 35.4714C25.2537 34.2775 24.5972 33.1988 23.5406 32.4246H44.8888C43.8323 33.1988 43.1758 34.2775 43.1758 35.4714C43.1758 37.8273 45.7288 39.7371 48.8782 39.7371C52.0276 39.7371 54.5807 37.8273 54.5807 35.4714C54.5807 33.7826 53.2683 32.3231 51.365 31.632L51.9268 29.7828C52.2743 28.6389 51.1119 27.5496 49.5437 27.5496H22.2108L21.5443 25.1121H51.3951C52.5362 25.1121 53.5254 24.5214 53.7783 23.6891Z" fill="#FF9213"/>
</svg>
