<svg width="19" height="12" viewBox="0 0 19 12" fill="none" xmlns="http://www.w3.org/2000/svg">
<path d="M9.11609 11.597C8.90084 11.597 8.69259 11.5544 8.49133 11.4694C8.289 11.3844 8.12057 11.271 7.98604 11.1293L0.560034 3.3062C0.26407 2.99441 0.116089 2.59759 0.116089 2.11573C0.116089 1.63387 0.26407 1.23705 0.560034 0.925264C0.855999 0.613474 1.23268 0.457581 1.69008 0.457581C2.14748 0.457581 2.52416 0.613474 2.82012 0.925264L9.11609 7.55787L15.4121 0.925264C15.708 0.613474 16.0847 0.457581 16.5421 0.457581C16.9995 0.457581 17.3762 0.613474 17.6721 0.925264C17.9681 1.23705 18.1161 1.63387 18.1161 2.11573C18.1161 2.59759 17.9681 2.99441 17.6721 3.3062L10.2461 11.1293C10.0847 11.2993 9.90981 11.4195 9.72147 11.4898C9.53313 11.5612 9.33133 11.597 9.11609 11.597V11.597Z" fill="black"/>
</svg>
