<svg width="25" height="15" viewBox="0 0 25 15" fill="none" xmlns="http://www.w3.org/2000/svg">
<path d="M0.0850001 1.609L11.1788 9.47636C11.5069 9.70924 11.9453 9.8475 12.409 9.86436C12.8727 9.88123 13.3287 9.7755 13.6888 9.56766L13.8312 9.47636L24.9175 1.61432C24.9538 1.71182 24.9775 1.81109 24.99 1.91302L25 2.06814V12.7045C25.0002 13.1517 24.762 13.5825 24.3331 13.9104C23.9043 14.2384 23.3164 14.4393 22.6875 14.4728L22.5 14.4772H2.5C1.86928 14.4774 1.26179 14.3085 0.799315 14.0044C0.336838 13.7003 0.0535541 13.2834 0.00625014 12.8375L0 12.7045V2.06814C0 1.96177 0.0125 1.85896 0.0375 1.75791L0.0850001 1.609ZM22.5 0.29541C22.6513 0.29541 22.8 0.304274 22.9437 0.322888L23.1562 0.357456L12.5063 7.90927L1.8525 0.355683C1.99 0.329092 2.1325 0.311365 2.2775 0.302501L2.5 0.29541H22.5Z" fill="black"/>
</svg>
