<svg width="21" height="20" viewBox="0 0 21 20" fill="none" xmlns="http://www.w3.org/2000/svg">
<path d="M15.0086 12.421H14.06L13.7238 12.1337C14.9412 10.8822 15.6102 9.28439 15.6089 7.63195C15.6089 6.26378 15.1512 4.92633 14.2936 3.78874C13.4361 2.65115 12.2172 1.7645 10.7911 1.24093C9.36502 0.717353 7.7958 0.580361 6.28189 0.847278C4.76797 1.11419 3.37735 1.77303 2.28588 2.74047C1.1944 3.70792 0.451101 4.94051 0.149964 6.28239C-0.151173 7.62427 0.00338155 9.01517 0.594083 10.2792C1.18478 11.5432 2.1851 12.6236 3.46854 13.3837C4.75197 14.1438 6.26089 14.5495 7.80446 14.5495C9.73757 14.5495 11.5146 13.9216 12.8834 12.8787L13.2075 13.1767V14.0174L19.211 19.328L21 17.7423L15.0086 12.421ZM7.80446 12.421C4.81475 12.421 2.40138 10.2819 2.40138 7.63195C2.40138 4.98198 4.81475 2.84285 7.80446 2.84285C10.7942 2.84285 13.2075 4.98198 13.2075 7.63195C13.2075 10.2819 10.7942 12.421 7.80446 12.421Z" fill="black"/>
</svg>
