<svg width="19" height="11" viewBox="0 0 19 11" fill="none" xmlns="http://www.w3.org/2000/svg">
<path d="M9.11609 10.052C8.90084 10.052 8.69259 10.0148 8.49133 9.94036C8.289 9.86593 8.12057 9.7667 7.98604 9.64265L0.560034 2.79532C0.26407 2.52242 0.116089 2.17509 0.116089 1.75334C0.116089 1.33158 0.26407 0.984253 0.560034 0.711353C0.855999 0.438452 1.23268 0.302002 1.69008 0.302002C2.14748 0.302002 2.52416 0.438452 2.82012 0.711353L9.11609 6.5167L15.4121 0.711353C15.708 0.438452 16.0847 0.302002 16.5421 0.302002C16.9995 0.302002 17.3762 0.438452 17.6721 0.711353C17.9681 0.984253 18.1161 1.33158 18.1161 1.75334C18.1161 2.17509 17.9681 2.52242 17.6721 2.79532L10.2461 9.64265C10.0847 9.7915 9.90981 9.8967 9.72147 9.95822C9.53313 10.0207 9.33134 10.052 9.11609 10.052Z" fill="black"/>
</svg>
